<?xml version="1.0" standalone="no"?>
<!DOCTYPE svg PUBLIC "-//W3C//DTD SVG 20010904//EN"
 "http://www.w3.org/TR/2001/REC-SVG-20010904/DTD/svg10.dtd">
<svg version="1.0" xmlns="http://www.w3.org/2000/svg"
 width="236.000000pt" height="438.000000pt" viewBox="0 0 236.000000 438.000000"
 preserveAspectRatio="xMidYMid meet">

<g transform="translate(0.000000,438.000000) scale(0.100000,-0.100000)"
fill="#000000" stroke="none">
<path d="M1575 4374 c-424 -59 -692 -267 -814 -632 -52 -152 -53 -173 -58
-614 l-5 -418 -349 0 -349 0 0 -400 0 -400 350 0 350 0 0 -955 0 -955 435 0
435 0 0 955 0 955 318 0 317 0 59 378 c32 207 60 387 63 400 l5 22 -382 0
-381 0 3 313 c3 299 4 314 27 370 44 111 113 177 226 219 54 20 83 22 298 26
l237 4 0 343 0 343 -37 6 c-149 24 -318 38 -503 41 -118 2 -228 1 -245 -1z"/>
</g>
</svg>
